<?xml version="1.0" encoding="UTF-8"?>
<svg width="24px" height="24px" viewBox="0 0 24 24" version="1.1" xmlns="http://www.w3.org/2000/svg" xmlns:xlink="http://www.w3.org/1999/xlink">
    <g stroke="none" stroke-width="1" fill="none" fill-rule="evenodd">
        <path d="M12,2 C17.5228,2 22,6.47715 22,12 C22,17.5228 17.5228,22 12,22 C6.47715,22 2,17.5228 2,12 C2,6.47715 6.47715,2 12,2 Z" fill="#f8b84e" opacity="0.3"/>
        <path d="M16.6172,5.28033 C15.9828,4.90686 15.2161,4.90686 14.5817,5.28033 L14.5817,5.28033 L13.5733,5.89697 C13.2372,6.10433 12.8458,6.21417 12.4454,6.2135 C12.1493,6.21295 11.8546,6.15923 11.5757,6.05431 C11.296,5.94909 11.0335,5.79458 10.7993,5.59434 L10.7993,5.59434 L9.83835,4.77602 C9.18795,4.22196 8.26466,4.12528 7.51105,4.53375 L7.51105,4.53375 L6.95137,4.84268 C6.22429,5.23441 5.91048,6.11154 6.22876,6.87101 L6.22876,6.87101 L6.25599,6.93669 C6.64915,7.8676 7.04231,8.79852 7.41261,9.74079 C7.90774,11.0742 8.86213,12.185 10.1423,12.8648 L10.1423,12.8648 L11.112,13.3946 C11.3951,13.9838 11.5917,14.6103 11.6967,15.2556 L11.6967,15.2556 L11.6779,15.5759 C11.6072,16.6756 12.5021,17.5987 13.6029,17.5987 C14.703,17.5987 15.5979,16.6769 15.5286,15.5778 C15.4878,14.9335 15.2585,14.3128 14.8763,13.7931 L14.8763,13.7931 L15.6426,13.3841 C16.3046,13.0263 16.9159,12.5711 17.435,12.0151 L17.435,12.0151 L18.1058,11.2822 C18.3814,10.9805 18.3526,10.504 18.0415,10.2383 C17.7304,9.97262 17.2533,10.0013 16.9776,10.303 L16.9776,10.303 L16.3194,11.0223 C15.9164,11.4649 15.4294,11.8292 14.8903,12.0951 L14.8903,12.0951 L13.7347,12.6661 C13.2785,12.1371 13.0708,11.446 13.1627,10.75 L13.1627,10.75 L13.2778,10.2975 C13.5013,9.11657 13.7247,7.93563 13.9294,6.77607 C14.0048,6.36507 14.3878,6.09333 14.8052,6.13483 L14.8052,6.13483 L16.2632,6.29209 C16.9076,6.36581 17.5504,6.17927 18.0467,5.78077 L18.0467,5.78077 L18.677,5.28033 C19.3114,4.90686 19.4506,4.22196 19.0218,3.66569 L19.0218,3.66569 L18.677,3.21923 C18.0426,2.42902 16.6172,3.66569 16.6172,5.28033 Z" fill="#b45309" fill-rule="nonzero"/>
        <path d="M9.24013,18.9997 C8.82591,18.9997 8.49013,19.3354 8.49013,19.7497 C8.49013,20.1639 8.82591,20.4997 9.24013,20.4997 L13.5,20.4997 C13.9142,20.4997 14.25,20.1639 14.25,19.7497 C14.25,19.3354 13.9142,18.9997 13.5,18.9997 L9.24013,18.9997 Z" fill="#b45309" fill-opacity="0.3"/>
        <path d="M5.5,12.75 C5.5,12.3358 5.83579,12 6.25,12 L7.75,12 C8.16421,12 8.5,12.3358 8.5,12.75 L8.5,18.25 C8.5,18.6642 8.16421,19 7.75,19 L6.25,19 C5.83579,19 5.5,18.6642 5.5,18.25 L5.5,12.75 Z" fill="#b45309" fill-opacity="0.3"/>
    </g>
</svg>
