<?xml version="1.0" encoding="UTF-8"?>
<svg xmlns="http://www.w3.org/2000/svg" viewBox="0 0 24 24" width="120" height="120" fill="none">
  <!-- Background construction pattern -->
  <rect width="24" height="24" fill="#FDF6E3" rx="4" />
  <path d="M3 12H21M12 3V21M4 4L20 20M20 4L4 20" stroke="#F59E0B" stroke-width="1" stroke-linecap="round" stroke-dasharray="2 2" />
  
  <!-- Construction helmet -->
  <path d="M8 14.5C8 11 10 9 12 9C14 9 16 11 16 14.5" fill="#FEF3C7" stroke="#D97706" stroke-width="1.5" />
  <path d="M7 15H17" stroke="#D97706" stroke-width="1.5" stroke-linecap="round" />
  <path d="M8 15L7.5 18H16.5L16 15" fill="#FEF3C7" stroke="#D97706" stroke-width="1.5" />
  
  <!-- Tools -->
  <path d="M14.5 8L16.5 6" stroke="#92400E" stroke-width="1.5" stroke-linecap="round" />
  <path d="M16.5 6C17.3284 6 18 6.67157 18 7.5C18 8.32843 17.3284 9 16.5 9C15.6716 9 15 8.32843 15 7.5C15 6.67157 15.6716 6 16.5 6Z" fill="#FBBF24" stroke="#92400E" stroke-width="1" />
  
  <!-- Blueprint/document in the background -->
  <rect x="6" y="12" width="12" height="8" rx="1" fill="#E5E7EB" stroke="#6B7280" stroke-width="1" />
  <path d="M8 14H16M8 16H16M8 18H12" stroke="#6B7280" stroke-width="1" stroke-linecap="round" />
</svg>
